<?xml version="1.0" encoding="utf-8"?>
<!-- Generator: Adobe Illustrator 22.1.0, SVG Export Plug-In . SVG Version: 6.00 Build 0)  -->
<svg version="1.1" id="Layer_1" xmlns="http://www.w3.org/2000/svg" xmlns:xlink="http://www.w3.org/1999/xlink" x="0px" y="0px"
	 viewBox="0 0 528.5 111.7" style="enable-background:new 0 0 528.5 111.7;" xml:space="preserve">
<style type="text/css">
	.st0{fill:#154454;}
</style>
<g>
	<polygon class="st0" points="37.2,14.6 18.6,14.6 18.6,33.2 18.6,51.9 37.2,33.2 	"/>
	<polygon class="st0" points="63,0 44.3,0 44.3,18.6 44.3,37.3 63,18.6 	"/>
	<polygon class="st0" points="0,89.1 0,98.4 18.6,98.4 18.6,89.1 18.6,70.5 18.6,51.9 0,70.5 	"/>
	<polygon class="st0" points="91.5,98.4 110.1,98.4 110.1,78.5 110.1,59.8 91.5,78.5 	"/>
	<polygon class="st0" points="65.7,111.7 84.4,111.7 84.4,93.1 84.4,74.4 65.7,93.1 	"/>
	<polygon class="st0" points="84.4,65.2 84.4,74.4 103,55.8 103,37.3 103,37.2 103,18.6 103,0 84.4,0 84.4,18.6 84.4,37.2 
		84.4,37.3 84.4,46.5 44.3,46.5 44.3,37.3 25.7,55.9 25.7,74.4 25.7,74.5 25.7,93.1 25.7,111.7 44.3,111.7 44.3,93.1 44.3,74.5 
		44.3,74.4 44.3,65.2 	"/>
	<polygon class="st0" points="110.1,14.6 110.1,22.6 110.1,22.8 110.1,41.2 110.1,59.8 128.7,41.2 128.7,22.8 128.7,22.6 
		128.7,14.6 	"/>
	<g>
		<path class="st0" d="M323.4,83.8c-4.6,4.9-9.3,8.4-14.1,10.7c-5.6,2.7-12.1,4-19.7,4c-12.1,0-22.2-4.1-30.2-12.3
			C251.3,78,247.3,68,247.3,56v-0.2c0-11.9,4-22,12.1-30.3c8.1-8.2,18.4-12.4,30.9-12.4c13,0,23.9,4.2,32.5,12.7l-12.5,12.4
			c-6.8-6.2-12.9-8.4-20.1-8.4c-6.8,0-12.5,2.5-17.1,7.5s-6.8,11.1-6.8,18.2v0.2c0,7.2,2.3,13.4,6.8,18.4s10.2,7.5,17.1,7.5
			c7.4,0,14.6-3.2,21.7-9.7L323.4,83.8z"/>
		<path class="st0" d="M236,61.2c0,12.3-3.2,21.5-9.6,27.8s-15.3,9.4-26.6,9.4c-11.2,0-20-3.1-26.3-9.4c-6.3-6.2-9.4-15.3-9.4-27.3
			V32.4l18.1-17.8v46.6c0,6.6,1.5,11.6,4.7,15.1c3.1,3.5,7.5,5.2,13.1,5.2c5.7,0,10-1.7,13.1-5.1s4.7-8.3,4.7-14.7V14.5H236V61.2z"
			/>
		<path class="st0" d="M407.8,97.1h-18.1V64h-33.5v33.1H338V14.6h18.1v32.6h33.5V14.6h18.1v82.5H407.8z"/>
		<path class="st0" d="M495.5,97.1h-21.2l-17.7-26.4h-14.3v26.4h-18.1V14.6H462c9.7,0,17.4,2.4,22.9,7.2c5.5,4.8,8.2,11.5,8.2,20V42
			c0,12.6-5.9,21.2-17.7,25.6L495.5,97.1z M474.7,43v-0.2c0-7.9-4.8-11.8-14.3-11.8h-18v23.7h18.4c4.3,0,7.7-1.1,10.2-3.2
			C473.4,49.4,474.7,46.5,474.7,43z"/>
		<path class="st0" d="M510.4,15.3v82.5h0.2l17.9-17.9V15.4h-18.1V15.3z"/>
	</g>
</g>
</svg>
